<?xml version="1.0" encoding="iso-8859-1"?>
<!-- Generator: Adobe Illustrator 19.0.0, SVG Export Plug-In . SVG Version: 6.00 Build 0)  -->
<svg version="1.1" id="Capa_1" xmlns="http://www.w3.org/2000/svg" xmlns:xlink="http://www.w3.org/1999/xlink" x="0px" y="0px"
	 viewBox="0 0 512 512" style="enable-background:new 0 0 512 512;" xml:space="preserve">
<path style="fill:#7A8B93;" d="M7.502,504.678c0,0,74.989-142.512,74.989-248.498S107.217,33.117,256,33.117
	S429.508,150.193,429.508,256.18s74.989,248.498,74.989,248.498H7.502z"/>
<path style="fill:#67777E;" d="M271,33.548c-4.859-0.275-9.848-0.43-15-0.43c-148.782,0-173.509,117.076-173.509,223.062
	S7.502,504.678,7.502,504.678h30c0,0,74.989-142.512,74.989-248.498C112.491,153.865,135.55,41.227,271,33.548z"/>
<circle style="fill:#202020;" cx="333.637" cy="154.279" r="20.995"/>
<path style="fill:#697980;" d="M336.583,274.337c0,0-2.753,63.33-80.584,63.33s-80.584-63.33-80.584-63.33H336.583z"/>
<path style="fill:#8CA1AB;" d="M303.309,182.648c50.15,17.13,71.399,60.75,63.77,93.759c-9.71,41.99-46.2,12.39-111.079,12.39
	s-101.369,29.6-111.079-12.39c-7.63-33.01,13.62-76.629,63.77-93.759L303.309,182.648L303.309,182.648z"/>
<path style="fill:#697980;" d="M303.309,182.648c-4.17,18.49-23.76,32.49-47.31,32.49s-43.14-14-47.31-32.49
	c13.63-4.67,29.4-7.37,47.31-7.37C273.91,175.278,289.679,177.978,303.309,182.648z"/>
<g>
	<path style="fill:#424342;" d="M336.586,245.357c-2.964,0-5.771-1.768-6.953-4.684c-1.556-3.838,0.294-8.212,4.133-9.769
		c3.212-1.302,79.731-31.627,172.539-8.589c4.021,0.998,6.471,5.066,5.473,9.086c-0.998,4.02-5.066,6.469-9.086,5.472
		c-88.124-21.877-162.547,7.631-163.29,7.932C338.478,245.178,337.524,245.357,336.586,245.357z"/>
	<path style="fill:#424342;" d="M504.493,295.605c-1.627,0-3.266-0.527-4.642-1.614c-45.968-36.288-161.459-26.739-162.62-26.638
		c-4.131,0.361-7.762-2.698-8.12-6.824c-0.357-4.127,2.698-7.762,6.824-8.12c4.983-0.431,122.626-10.123,173.21,29.809
		c3.251,2.566,3.806,7.283,1.239,10.534C508.905,294.627,506.71,295.605,504.493,295.605z"/>
	<path style="fill:#424342;" d="M492.759,360.312c-2.269,0-4.51-1.025-5.985-2.973C435.9,290.16,336.567,288.69,335.57,288.683
		c-4.142-0.029-7.476-3.411-7.447-7.553c0.029-4.124,3.381-7.447,7.499-7.447c0.018,0,0.036,0,0.054,0
		c1.096,0.008,27.236,0.294,60.385,9.499c44.214,12.277,79.717,34.789,102.672,65.101c2.5,3.302,1.851,8.006-1.451,10.507
		C495.926,359.817,494.336,360.312,492.759,360.312z"/>
	<path style="fill:#424342;" d="M299.317,116.628c-1.647,0-3.305-0.54-4.689-1.651c-3.229-2.592-3.748-7.308-1.158-10.538
		c1.737-2.167,43.271-53.361,106.349-78.294c3.852-1.524,8.209,0.365,9.732,4.217s-0.365,8.209-4.217,9.732
		c-59.274,23.431-99.761,73.23-100.163,73.73C303.688,115.668,301.512,116.628,299.317,116.628z"/>
	<path style="fill:#424342;" d="M293.806,89.782c-1.25,0-2.517-0.313-3.683-0.972c-3.604-2.038-4.876-6.609-2.84-10.215
		c1.417-2.509,35.213-61.56,79.734-71.105c4.05-0.866,8.038,1.711,8.906,5.761c0.868,4.05-1.711,8.037-5.761,8.906
		c-37.908,8.128-69.505,63.263-69.819,63.818C298.963,88.412,296.422,89.782,293.806,89.782z"/>
</g>
<circle style="fill:#202020;" cx="178.358" cy="154.279" r="20.995"/>
<g>
	<path style="fill:#424342;" d="M175.412,245.357c-0.938,0-1.89-0.177-2.812-0.55c-0.887-0.356-75.477-29.732-163.292-7.934
		c-4.022,0.995-8.088-1.452-9.086-5.472c-0.998-4.021,1.452-8.088,5.472-9.086c92.812-23.039,169.327,7.287,172.539,8.589
		c3.839,1.557,5.689,5.93,4.133,9.769C181.183,243.588,178.376,245.357,175.412,245.357z"/>
	<path style="fill:#424342;" d="M7.507,295.605c-2.217,0-4.412-0.979-5.892-2.854c-2.566-3.251-2.012-7.967,1.24-10.534
		c21.473-16.951,57.288-27.1,106.449-30.166c36.021-2.246,65.521,0.25,66.759,0.357c4.126,0.358,7.181,3.993,6.824,8.119
		s-3.999,7.184-8.118,6.826c-1.163-0.101-116.698-9.614-162.621,26.638C10.773,295.078,9.134,295.605,7.507,295.605z"/>
	<path style="fill:#424342;" d="M19.241,360.312c-1.578,0-3.168-0.496-4.522-1.521c-3.302-2.5-3.952-7.205-1.451-10.507
		c22.955-30.313,58.458-52.824,102.672-65.101c33.149-9.205,59.289-9.491,60.385-9.499c4.114-0.053,7.523,3.306,7.553,7.447
		c0.029,4.14-3.302,7.521-7.442,7.553l0,0c-0.252,0.002-25.573,0.314-56.877,9.063c-28.473,7.957-67.95,24.755-94.332,59.594
		C23.751,359.287,21.509,360.312,19.241,360.312z"/>
	<path style="fill:#424342;" d="M212.682,116.63c-2.198,0-4.375-0.961-5.856-2.81c-0.558-0.691-41.003-50.343-100.161-73.727
		c-3.852-1.522-5.74-5.88-4.217-9.732c1.522-3.852,5.879-5.741,9.732-4.217c63.078,24.935,104.612,76.127,106.349,78.294
		c2.591,3.231,2.071,7.952-1.161,10.542C215.984,116.091,214.327,116.63,212.682,116.63z"/>
	<path style="fill:#424342;" d="M218.191,89.785c-2.617,0-5.159-1.372-6.538-3.813c-0.424-0.748-31.978-55.702-69.817-63.814
		c-4.05-0.869-6.629-4.856-5.761-8.906c0.869-4.05,4.857-6.626,8.906-5.761c44.522,9.546,78.317,68.597,79.734,71.105
		c2.037,3.607,0.764,8.182-2.843,10.219C220.707,89.472,219.44,89.785,218.191,89.785z"/>
</g>
<g>
</g>
<g>
</g>
<g>
</g>
<g>
</g>
<g>
</g>
<g>
</g>
<g>
</g>
<g>
</g>
<g>
</g>
<g>
</g>
<g>
</g>
<g>
</g>
<g>
</g>
<g>
</g>
<g>
</g>
</svg>
